PathFileType	4	(X/Y/Z)	./resultDataOpenSim/trcMotMarkerGrf/sub09/qtm-04-01.trc
DataRate	CameraRate	NumFrames	NumMarkers	Units	OrigDataRate	OrigDataStartFrame	OrigNumFrames
250.000000	250.000000	13	24	m	250.000000	443	506
Frame#	Time	L.Toe.Tip			R.Toe.Tip			L.Ankle.Lat			R.Ankle.Lat			L.Ankle.Med			R.Ankle.Med			L.Heel			R.Heel			L.Knee.Lat			R.Knee.Lat			L.Knee.Med			R.Knee.Med			L.Thigh.Upper			R.Thigh.Upper			L.ASIS			R.ASIS			V.Sacral			L.Acromium			R.Acromium			C7			L.Elbow			R.Elbow			L.Wrist.Lat			R.Wrist.Lat
		X1	Y1	Z1	X2	Y2	Z2	X3	Y3	Z3	X4	Y4	Z4	X5	Y5	Z5	X6	Y6	Z6	X7	Y7	Z7	X8	Y8	Z8	X9	Y9	Z9	X10	Y10	Z10	X11	Y11	Z11	X12	Y12	Z12	X13	Y13	Z13	X14	Y14	Z14	X15	Y15	Z15	X16	Y16	Z16	X17	Y17	Z17	X18	Y18	Z18	X19	Y19	Z19	X20	Y20	Z20	X21	Y21	Z21	X22	Y22	Z22	X23	Y23	Z23	X24	Y24	Z24

443	1.768	1.8254232	0.096603195	-0.012998566	1.1158486	0.04087982	0.11804623	1.671907	0.078182124	-0.041179889	0.98921665	0.10363514	0.15580334	1.6950564	0.10411669	0.05154223	1.0126719	0.13767014	0.065434556	1.6186261	0.018246568	0.015779283	0.91505611	0.11178903	0.10446911	1.5538629	0.48093575	-0.076017869	1.2566496	0.47715948	0.21770002	1.5603472	0.4755022	0.05017907	1.246652	0.4704685	0.091329038	1.3721033	0.85673168	-0.1108231	1.3265879	0.87602263	0.2603338	1.4403437	0.9478799	-0.046607929	1.4349437	0.95645389	0.19495393	1.2662863	0.99986523	0.0588554	1.4027961	1.4035964	-0.10874914	1.390313	1.4177793	0.2239925	1.3250063	1.4575373	0.055452013	1.2592959	1.0617629	-0.1576684	1.2726271	1.0707555	0.31031631	1.3779333	0.83387559	-0.2159615	1.4367306	0.84690976	0.31091727
444	1.772	1.8281164	0.090525668	-0.01201178	1.1161697	0.041026901	0.11815448	1.6740783	0.076706838	-0.04056095	0.99140423	0.10579414	0.15650686	1.6975018	0.10239451	0.05224431	1.0147588	0.13942478	0.06593908	1.6193522	0.018578426	0.01633979	0.9167909	0.11495879	0.10476512	1.55965	0.47992794	-0.076099818	1.2630622	0.47609244	0.21814376	1.5669658	0.4750962	0.049683262	1.25288	0.46895353	0.091662084	1.3775018	0.85612099	-0.11172889	1.3326203	0.87484555	0.25962822	1.4464955	0.94719303	-0.047146441	1.4410841	0.95527979	0.1944509	1.2723058	0.99886622	0.058438693	1.4081609	1.4026777	-0.10925768	1.3955747	1.4166446	0.22347409	1.3301271	1.4564584	0.05493516	1.2653854	1.0605199	-0.15810458	1.277624	1.0697667	0.30966261	1.3842381	0.83275147	-0.21618219	1.4414151	0.84572578	0.31106068
445	1.776	1.8315822	0.08469513	-0.01106435	1.1165161	0.041177308	0.11831058	1.676829	0.075894582	-0.040041708	0.99403125	0.1081194	0.15731421	1.700792	0.10115718	0.052749803	1.0169969	0.14123744	0.066454608	1.6205269	0.019846548	0.017076892	0.91867518	0.1182606	0.10506026	1.5653331	0.47904047	-0.076371795	1.2698072	0.4749855	0.21862033	1.5734293	0.47459564	0.049132943	1.2594784	0.46739622	0.092162728	1.3830256	0.85547184	-0.11262312	1.3386916	0.8736282	0.25888611	1.4525655	0.9465991	-0.047642352	1.4472685	0.95411208	0.19393592	1.2782535	0.99799867	0.058055075	1.4135305	1.4017971	-0.10978717	1.4008286	1.4155481	0.2229633	1.3352666	1.4554764	0.054391454	1.2715141	1.0593061	-0.15853238	1.2828144	1.0688146	0.30906547	1.3905863	0.83164	-0.21639449	1.4461031	0.84455406	0.31119075
446	1.78	1.8355321	0.07963417	-0.010258691	1.1168836	0.041309929	0.11854029	1.6800664	0.075512217	-0.039749172	0.99654598	0.11049154	0.15810207	1.704668	0.10018489	0.052997681	1.0193882	0.14309098	0.066985446	1.6220536	0.021636215	0.017791256	0.92072769	0.12170165	0.10539754	1.5710233	0.47839771	-0.076872858	1.2765277	0.47381394	0.21902488	1.5797665	0.47410326	0.048583198	1.2660724	0.46584111	0.092536345	1.388714	0.85480923	-0.11348922	1.3448014	0.87237591	0.25812373	1.4585388	0.94611716	-0.048135477	1.4534758	0.95295098	0.1934021	1.2841195	0.99727239	0.057693819	1.4189013	1.4009606	-0.11034784	1.4060617	1.4145123	0.22246984	1.3404585	1.4546244	0.053823884	1.2776755	1.0581117	-0.15896243	1.2882807	1.0678474	0.30849902	1.3969783	0.83054505	-0.21659433	1.4507898	0.84339365	0.31130903
447	1.784	1.8394666	0.075501659	-0.0096173337	1.1172735	0.04141348	0.1188647	1.6835516	0.075239684	-0.03972675	0.99788598	0.11275191	0.15857368	1.7086441	0.099328502	0.053015269	1.0219319	0.14498618	0.067535605	1.6237385	0.023427585	0.018300504	0.92296862	0.12529271	0.10581179	1.5768806	0.47812051	-0.077624864	1.2829833	0.47256871	0.21928114	1.5860025	0.47378467	0.04806228	1.2726906	0.46428173	0.092724032	1.3945613	0.85419218	-0.11430479	1.3509818	0.8710763	0.25736396	1.4644218	0.9457491	-0.048656881	1.4596758	0.95179976	0.19284312	1.2899075	0.99666463	0.057362418	1.4242678	1.4001744	-0.11094222	1.4112725	1.4135477	0.22199247	1.3457316	1.4539158	0.053235157	1.283875	1.056928	-0.15939953	1.2940368	1.0668253	0.30793483	1.4034092	0.82947334	-0.2167768	1.4554451	0.84224809	0.3114341
448	1.788	1.8429856	0.072015447	-0.0090131814	1.117705	0.041513668	0.11925513	1.6870303	0.074899209	-0.039932239	0.99799861	0.11493748	0.15867438	1.7122857	0.098563439	0.052865463	1.0246324	0.14694837	0.06810532	1.6254065	0.024891633	0.018545956	0.92540897	0.12904271	0.10631935	1.5830854	0.47829286	-0.078594258	1.289259	0.47126858	0.21939851	1.5921515	0.47381361	0.047557933	1.27964	0.46269296	0.092874858	1.4005428	0.85370922	-0.11504656	1.3572702	0.86972245	0.25662675	1.47023	0.94549991	-0.049207305	1.4658537	0.95066815	0.19226089	1.2956265	0.99614726	0.057086733	1.4296306	1.3994511	-0.11156092	1.4164679	1.4126552	0.22152954	1.351082	1.4533363	0.05263451	1.2901175	1.0557606	-0.15983674	1.2999262	1.0657816	0.30736183	1.4098741	0.82843302	-0.21693856	1.4600488	0.84112653	0.31157919
449	1.792	1.8459165	0.06870268	-0.0082854317	1.1182119	0.041661831	0.11965846	1.6902953	0.074496966	-0.040281973	0.99827702	0.11732908	0.15872774	1.7153235	0.09788462	0.052616669	1.0275105	0.1490033	0.068689774	1.626951	0.02597821	0.018578569	0.92806192	0.13296554	0.10689593	1.5897322	0.47893647	-0.079625927	1.2956829	0.46996294	0.21945918	1.5982496	0.47430037	0.0470317	1.2870763	0.46107602	0.093091007	1.4066377	0.85345904	-0.11571037	1.3636597	0.86832994	0.25591241	1.4759823	0.9453923	-0.049768504	1.4720125	0.94957287	0.1916698	1.3012922	0.99570731	0.056886554	1.4349953	1.3988061	-0.11219015	1.4216609	1.4118382	0.22107913	1.3564667	1.4528468	0.052035909	1.2964052	1.0546295	-0.16026503	1.3056589	1.0648128	0.30675994	1.4163699	0.8274339	-0.21707863	1.4646257	0.84004043	0.31172457
450	1.796	1.8482368	0.065224698	-0.0074275039	1.118806	0.041889047	0.12002538	1.6931627	0.074101184	-0.040703468	0.99986239	0.12014537	0.15900365	1.7176375	0.097238259	0.052325598	1.030591	0.1511578	0.06929223	1.6283275	0.026799275	0.018472501	0.93095631	0.13708686	0.10748128	1.5967616	0.47999997	-0.08049442	1.3024941	0.46870745	0.21952436	1.6043518	0.47524779	0.046446457	1.2948194	0.45944887	0.09333331	1.4128284	0.85351927	-0.11632238	1.3701024	0.86691167	0.25520891	1.4817026	0.94545501	-0.050322241	1.4781499	0.94853299	0.19108309	1.3069396	0.99533678	0.056760232	1.4403645	1.3982495	-0.11281811	1.4268584	1.4111137	0.22063282	1.3618393	1.4524183	0.051445715	1.3027479	1.0535611	-0.16068441	1.310992	1.0639952	0.30607564	1.4228969	0.82648679	-0.21719851	1.4692099	0.83900081	0.31183739
451	1.8	1.8499867	0.061536967	-0.0065846293	1.1194542	0.042190733	0.12026141	1.6954831	0.073733995	-0.041159159	1.0026002	0.12332906	0.15949292	1.7192918	0.096565171	0.052012842	1.0338842	0.15341292	0.069927561	1.6295315	0.027474928	0.018272305	0.93412155	0.1414341	0.10802121	1.6040376	0.48135742	-0.081062557	1.3097115	0.46752468	0.21960124	1.610496	0.47656216	0.045791873	1.302578	0.45782039	0.093526588	1.4190908	0.8539212	-0.11692137	1.376553	0.86547085	0.25451375	1.4874124	0.94570717	-0.05086367	1.4842499	0.94756382	0.19049152	1.3126143	0.99501653	0.056695668	1.4457378	1.3977845	-0.11343559	1.4320546	1.4105046	0.2201764	1.3671757	1.4520477	0.05085272	1.3091563	1.0525781	-0.16110283	1.315894	1.0633429	0.30527573	1.4294591	0.82560338	-0.21729971	1.4737906	0.83802069	0.31191221
452	1.804	1.851264	0.057818398	-0.0058797779	1.1200999	0.042547274	0.12023808	1.6972395	0.073366618	-0.041623852	1.0058018	0.12668845	0.16009504	1.720573	0.095852919	0.051672885	1.0373951	0.15577655	0.070604708	1.6305771	0.028065863	0.017995774	0.93756608	0.14602681	0.10850201	1.6114755	0.48283024	-0.081367885	1.3172762	0.46639682	0.21968554	1.6166918	0.47810716	0.045083951	1.3103208	0.45618615	0.093705859	1.4253908	0.85464783	-0.11753399	1.3830021	0.86403338	0.25383454	1.4931253	0.94615567	-0.051405317	1.4902959	0.94667152	0.18986921	1.3183428	0.99471739	0.056678185	1.4511156	1.3974102	-0.11403248	1.4372404	1.4100216	0.21969853	1.3724648	1.4517255	0.050240664	1.3156256	1.0516932	-0.16152823	1.3205843	1.0628422	0.30440406	1.4360602	0.82479611	-0.21737904	1.478321	0.83711602	0.31196804
453	1.808	1.8522485	0.054271927	-0.0053192245	1.1206969	0.042936362	0.11992913	1.6985979	0.072975029	-0.042048105	1.0090737	0.13011635	0.16073253	1.721811	0.095131395	0.051335466	1.0411346	0.15825995	0.071321842	1.6314829	0.028585439	0.017651839	0.94128471	0.15088284	0.10894138	1.6190412	0.48423137	-0.081557281	1.3251572	0.46530202	0.21979235	1.6229316	0.4797551	0.044341754	1.3182523	0.45454947	0.094029445	1.4316904	0.85565082	-0.11817206	1.3894744	0.86264795	0.25317243	1.4988517	0.94679407	-0.051961991	1.496285	0.94585405	0.1892032	1.3241145	0.99441256	0.056685676	1.4564995	1.3971223	-0.11459482	1.4424142	1.4096589	0.21919846	1.377701	1.4514189	0.049615165	1.3221338	1.0509114	-0.16196405	1.3253581	1.0624832	0.30353392	1.4426968	0.824077	-0.21743077	1.4827643	0.83629919	0.31201824
454	1.812	1.8531695	0.051042269	-0.0048438534	1.1212306	0.043340018	0.11948103	1.6998214	0.07257471	-0.042353695	1.0123901	0.13363432	0.16134812	1.7230776	0.094437271	0.051108507	1.0451106	0.16088008	0.072073586	1.6322656	0.029030184	0.017249949	0.94528041	0.15601608	0.10935443	1.6266388	0.48540962	-0.08176217	1.3333237	0.46423764	0.21995498	1.629195	0.48139152	0.043582427	1.3264654	0.4529387	0.094630735	1.4379579	0.85686798	-0.11884547	1.3959877	0.86133954	0.25251564	1.504601	0.94759518	-0.052538969	1.502235	0.94510791	0.18850107	1.3298909	0.99409178	0.056688313	1.4618938	1.396914	-0.11510905	1.4475832	1.4094004	0.21868515	1.3828853	1.4510959	0.049007225	1.3286593	1.0502352	-0.16240417	1.3303317	1.0622617	0.30269234	1.4493636	0.82345706	-0.21745387	1.4871192	0.83557591	0.31206126
455	1.816	1.8542073	0.048265827	-0.0044006159	1.1217345	0.043766997	0.11910317	1.7011365	0.072202682	-0.042464036	1.0158022	0.13733021	0.16192427	1.7242262	0.093790689	0.051120888	1.0493258	0.16366515	0.072845863	1.6329393	0.029396768	0.016801487	0.94957174	0.16140676	0.10973572	1.6340828	0.48628191	-0.082027717	1.3417099	0.46320879	0.22020401	1.6354401	0.48288483	0.042836789	1.334878	0.4513804	0.095462501	1.4441731	0.85822677	-0.11956952	1.4025278	0.86009858	0.2518466	1.5103766	0.94851498	-0.053141534	1.5081672	0.94443073	0.18777336	1.3356417	0.99375864	0.056667852	1.4673059	1.3967787	-0.1155676	1.4527557	1.4092264	0.21817091	1.3880189	1.4507501	0.048450969	1.3351909	1.0496645	-0.16282765	1.3354096	1.0621737	0.30186111	1.4560626	0.82294359	-0.217451	1.4914199	0.83495329	0.31208827
